<?xml version="1.0" standalone="no"?><svg xmlns="http://www.w3.org/2000/svg" viewBox="0 0 1440 320"><path fill="#0099ff" fill-opacity="1" d="M0,64L24,85.3C48,107,96,149,144,144C192,139,240,85,288,58.7C336,32,384,32,432,64C480,96,528,160,576,208C624,256,672,288,720,266.7C768,245,816,171,864,138.7C912,107,960,117,1008,144C1056,171,1104,213,1152,234.7C1200,256,1248,256,1296,240C1344,224,1392,192,1416,176L1440,160L1440,320L1416,320C1392,320,1344,320,1296,320C1248,320,1200,320,1152,320C1104,320,1056,320,1008,320C960,320,912,320,864,320C816,320,768,320,720,320C672,320,624,320,576,320C528,320,480,320,432,320C384,320,336,320,288,320C240,320,192,320,144,320C96,320,48,320,24,320L0,320Z"></path></svg>