<?xml version="1.0" standalone="no"?><svg xmlns="http://www.w3.org/2000/svg" viewBox="0 0 1440 320"><path fill="#0099ff" fill-opacity="1" d="M0,64L24,74.7C48,85,96,107,144,144C192,181,240,235,288,229.3C336,224,384,160,432,154.7C480,149,528,203,576,197.3C624,192,672,128,720,106.7C768,85,816,107,864,138.7C912,171,960,213,1008,224C1056,235,1104,213,1152,192C1200,171,1248,149,1296,128C1344,107,1392,85,1416,74.7L1440,64L1440,320L1416,320C1392,320,1344,320,1296,320C1248,320,1200,320,1152,320C1104,320,1056,320,1008,320C960,320,912,320,864,320C816,320,768,320,720,320C672,320,624,320,576,320C528,320,480,320,432,320C384,320,336,320,288,320C240,320,192,320,144,320C96,320,48,320,24,320L0,320Z"></path></svg>