<?xml version="1.0" standalone="no"?><svg xmlns="http://www.w3.org/2000/svg" viewBox="0 0 1440 320"><path fill="#0099ff" fill-opacity="1" d="M0,64L24,64C48,64,96,64,144,101.3C192,139,240,213,288,208C336,203,384,117,432,117.3C480,117,528,203,576,202.7C624,203,672,117,720,90.7C768,64,816,96,864,90.7C912,85,960,43,1008,37.3C1056,32,1104,64,1152,106.7C1200,149,1248,203,1296,192C1344,181,1392,107,1416,69.3L1440,32L1440,0L1416,0C1392,0,1344,0,1296,0C1248,0,1200,0,1152,0C1104,0,1056,0,1008,0C960,0,912,0,864,0C816,0,768,0,720,0C672,0,624,0,576,0C528,0,480,0,432,0C384,0,336,0,288,0C240,0,192,0,144,0C96,0,48,0,24,0L0,0Z"></path></svg>