<?xml version="1.0" standalone="no"?><svg xmlns="http://www.w3.org/2000/svg" viewBox="0 0 1440 320"><path fill="#0099ff" fill-opacity="1" d="M0,288L24,261.3C48,235,96,181,144,138.7C192,96,240,64,288,74.7C336,85,384,139,432,165.3C480,192,528,192,576,160C624,128,672,64,720,58.7C768,53,816,107,864,149.3C912,192,960,224,1008,240C1056,256,1104,256,1152,224C1200,192,1248,128,1296,122.7C1344,117,1392,171,1416,197.3L1440,224L1440,0L1416,0C1392,0,1344,0,1296,0C1248,0,1200,0,1152,0C1104,0,1056,0,1008,0C960,0,912,0,864,0C816,0,768,0,720,0C672,0,624,0,576,0C528,0,480,0,432,0C384,0,336,0,288,0C240,0,192,0,144,0C96,0,48,0,24,0L0,0Z"></path></svg>